<svg width="156" height="128" viewBox="0 0 156 128" fill="none" xmlns="http://www.w3.org/2000/svg">
<mask id="path-1-outside-1_20_216" maskUnits="userSpaceOnUse" x="9.25126" y="-1.50586" width="134.35" height="134.35" fill="black">
<rect fill="white" x="9.25126" y="-1.50586" width="134.35" height="134.35"/>
<path fill-rule="evenodd" clip-rule="evenodd" d="M114.216 68.3249L51.4455 40.4456L79.3248 103.216L93.7487 88.7921L108.857 103.9L115.908 96.8498L100.799 81.7415L114.216 68.3249Z"/>
</mask>
<path fill-rule="evenodd" clip-rule="evenodd" d="M114.216 68.3249L51.4455 40.4456L79.3248 103.216L93.7487 88.7921L108.857 103.9L115.908 96.8498L100.799 81.7415L114.216 68.3249Z" fill="white"/>
<path d="M51.4455 40.4456L54.6928 33.1343L35.6975 24.6976L44.1342 43.6929L51.4455 40.4456ZM114.216 68.3249L119.873 73.9817L128.111 65.743L117.463 61.0136L114.216 68.3249ZM79.3248 103.216L72.0135 106.463L76.7429 117.112L84.9817 108.873L79.3248 103.216ZM93.7487 88.7921L99.4056 83.1352L93.7487 77.4784L88.0918 83.1352L93.7487 88.7921ZM108.857 103.9L103.2 109.557L108.857 115.214L114.514 109.557L108.857 103.9ZM115.908 96.8498L121.564 102.507L127.221 96.8498L121.564 91.193L115.908 96.8498ZM100.799 81.7415L95.1424 76.0847L89.4855 81.7415L95.1424 87.3984L100.799 81.7415ZM48.1982 47.7569L110.969 75.6362L117.463 61.0136L54.6928 33.1343L48.1982 47.7569ZM86.6361 99.9686L58.7568 37.1983L44.1342 43.6929L72.0135 106.463L86.6361 99.9686ZM88.0918 83.1352L73.668 97.5591L84.9817 108.873L99.4056 94.4489L88.0918 83.1352ZM114.514 98.2435L99.4056 83.1352L88.0918 94.4489L103.2 109.557L114.514 98.2435ZM110.251 91.193L103.2 98.2435L114.514 109.557L121.564 102.507L110.251 91.193ZM95.1424 87.3984L110.251 102.507L121.564 91.193L106.456 76.0847L95.1424 87.3984ZM108.559 62.668L95.1424 76.0847L106.456 87.3984L119.873 73.9817L108.559 62.668Z" fill="black" mask="url(#path-1-outside-1_20_216)"/>
<path d="M94.5 0V35.5M82 18.5H106.5" stroke="black" stroke-width="8"/>
<path d="M35.8776 74V128M17 102.141H54" stroke="black" stroke-width="8"/>
<path d="M8.67347 45V71M0 58.5493H17" stroke="black" stroke-width="8"/>
<path d="M147.673 61V87M139 74.5493H156" stroke="black" stroke-width="8"/>
</svg>
