<svg width="720" height="900" viewBox="0 0 720 900" fill="none" xmlns="http://www.w3.org/2000/svg">
<rect x="7.62939e-06" width="720" height="900" fill="#2962F4"/>
<circle cx="270" cy="90" r="90" fill="#1F3D8A"/>
<circle cx="270" cy="630" r="90" fill="#1F3D8A"/>
<circle cx="450" cy="810" r="90" fill="#1F3D8A"/>
<circle cx="630" cy="270" r="90" fill="#F0F0F0"/>
<path fill-rule="evenodd" clip-rule="evenodd" d="M180 180C180 229.706 220.294 270 270 270C319.706 270 360 229.706 360 180L180 180Z" fill="#1F3D8A"/>
<path fill-rule="evenodd" clip-rule="evenodd" d="M180 270C180 319.706 220.294 360 270 360C319.706 360 360 319.706 360 270L180 270Z" fill="#1F3D8A"/>
<path fill-rule="evenodd" clip-rule="evenodd" d="M180 450C180 400.294 139.706 360 90 360C40.2944 360 7.62939e-06 400.294 7.62939e-06 450H180Z" fill="#F0F0F0"/>
<path fill-rule="evenodd" clip-rule="evenodd" d="M180 540C180 490.294 139.706 450 90 450C40.2944 450 7.62939e-06 490.294 7.62939e-06 540H180Z" fill="#F0F0F0"/>
<path fill-rule="evenodd" clip-rule="evenodd" d="M180 630C180 580.294 139.706 540 90 540C40.2944 540 7.62939e-06 580.294 7.62939e-06 630H180Z" fill="#1F3D8A"/>
<path fill-rule="evenodd" clip-rule="evenodd" d="M360 630C360 679.706 400.294 720 450 720C499.706 720 540 679.706 540 630L360 630Z" fill="#F0F0F0"/>
<path fill-rule="evenodd" clip-rule="evenodd" d="M180 720C180 670.294 139.706 630 90 630C40.2944 630 7.62939e-06 670.294 7.62939e-06 720H180Z" fill="#1F3D8A"/>
<path fill-rule="evenodd" clip-rule="evenodd" d="M360 540C360 589.706 400.294 630 450 630C499.706 630 540 589.706 540 540L360 540Z" fill="#F0F0F0"/>
<path fill-rule="evenodd" clip-rule="evenodd" d="M7.62939e-06 90C7.62939e-06 139.706 40.2944 180 90 180C139.706 180 180 139.706 180 90C180 40.2944 139.706 0 90 0V90H7.62939e-06Z" fill="#F0F0F0"/>
<path fill-rule="evenodd" clip-rule="evenodd" d="M540 450C540 400.294 499.706 360 450 360C400.294 360 360 400.294 360 450C360 499.706 400.294 540 450 540L450 450L540 450Z" fill="#1F3D8A"/>
<path fill-rule="evenodd" clip-rule="evenodd" d="M630 180C679.706 180 720 139.706 720 90C720 40.2944 679.706 -6.10673e-06 630 -3.93403e-06C580.294 -1.76132e-06 540 40.2944 540 90L630 90L630 180Z" fill="#F0F0F0"/>
<path fill-rule="evenodd" clip-rule="evenodd" d="M90 720C40.2944 720 1.34975e-05 760.294 1.13248e-05 810C9.15206e-06 859.706 40.2944 900 90 900C139.706 900 180 859.706 180 810L90 810L90 720Z" fill="#F0F0F0"/>
<path fill-rule="evenodd" clip-rule="evenodd" d="M540 180C440.589 180 360 260.589 360 360H540V180Z" fill="#1F3D8A"/>
<path fill-rule="evenodd" clip-rule="evenodd" d="M720 720C720 620.589 639.411 540 540 540L540 720L720 720Z" fill="#1F3D8A"/>
<path fill-rule="evenodd" clip-rule="evenodd" d="M360 540C360 440.589 279.411 360 180 360L180 540L360 540Z" fill="#F0F0F0"/>
<path fill-rule="evenodd" clip-rule="evenodd" d="M484.756 180C515.266 180 540 155.266 540 124.756C540 94.2457 515.266 69.5122 484.756 69.5122L470.488 69.5122L470.488 55.2439C470.488 24.7335 445.754 -3.74844e-06 415.244 -2.41479e-06C384.734 -1.08114e-06 360 24.7335 360 55.2439L360 145.012L360 170L360 170C360 175.523 364.477 180 370 180L484.756 180Z" fill="#FF6E4F"/>
<path fill-rule="evenodd" clip-rule="evenodd" d="M720 415.244C720 384.734 695.266 360 664.756 360C634.246 360 609.512 384.734 609.512 415.244L609.512 429.512L595.244 429.512C564.734 429.512 540 454.246 540 484.756C540 515.266 564.734 540 595.244 540L685.012 540L710 540L710 540C715.523 540 720 535.523 720 530L720 415.244Z" fill="#FF6E4F"/>
<path fill-rule="evenodd" clip-rule="evenodd" d="M304.756 900C335.266 900 360 875.266 360 844.756C360 814.246 335.266 789.512 304.756 789.512L290.488 789.512L290.488 775.244C290.488 744.734 265.754 720 235.244 720C204.734 720 180 744.734 180 775.244L180 865.012L180 890L180 890C180 895.523 184.477 900 190 900L304.756 900Z" fill="#FF6E4F"/>
</svg>
