<svg width="720" height="180" viewBox="0 0 720 180" fill="none" xmlns="http://www.w3.org/2000/svg">
<g clip-path="url(#clip0_22_2)">
<path d="M720 0H0V900H720V0Z" fill="#2962F4"/>
<path d="M270 180C319.706 180 360 139.706 360 90C360 40.2944 319.706 0 270 0C220.294 0 180 40.2944 180 90C180 139.706 220.294 180 270 180Z" fill="#1F3D8A"/>
<path fill-rule="evenodd" clip-rule="evenodd" d="M0 90C0 139.706 40.2944 180 90 180C139.706 180 180 139.706 180 90C180 40.2944 139.706 0 90 0V90H0Z" fill="#F0F0F0"/>
<path fill-rule="evenodd" clip-rule="evenodd" d="M630 180C679.706 180 720 139.706 720 90C720 40.2944 679.706 -2.1727e-06 630 0C580.294 2.17271e-06 540 40.2944 540 90H630V180Z" fill="#F0F0F0"/>
<path fill-rule="evenodd" clip-rule="evenodd" d="M484.756 180C515.266 180 540 155.266 540 124.756C540 94.2457 515.266 69.5122 484.756 69.5122H470.488V55.2439C470.488 24.7335 445.754 -1.33365e-06 415.244 0C384.734 1.33365e-06 360 24.7335 360 55.2439V145.012V170C360 175.523 364.477 180 370 180H484.756Z" fill="#FF6E4F"/>
</g>
<defs>
<clipPath id="clip0_22_2">
<rect width="720" height="180" fill="white"/>
</clipPath>
</defs>
</svg>
