<svg width="500" height="326" viewBox="0 0 500 326" fill="none" xmlns="http://www.w3.org/2000/svg">
<rect width="245" height="41" rx="7" fill="black"/>
<rect x="261" width="148" height="41" rx="7" fill="black"/>
<rect y="57" width="115" height="41" rx="7" fill="black"/>
<rect x="131" y="57" width="148" height="41" rx="7" fill="black"/>
<rect x="295" y="57" width="78" height="41" rx="7" fill="black"/>
<rect y="114" width="192" height="41" rx="7" fill="black"/>
<rect x="208" y="114" width="78" height="41" rx="7" fill="black"/>
<rect x="302" y="114" width="115" height="41" rx="7" fill="black"/>
<rect y="171" width="245" height="41" rx="7" fill="black"/>
<rect x="261" y="171" width="115" height="41" rx="7" fill="black"/>
<rect x="392" y="171" width="78" height="41" rx="7" fill="black"/>
<rect y="228" width="192" height="41" rx="7" fill="black"/>
<rect x="208" y="228" width="78" height="41" rx="7" fill="black"/>
<rect x="302" y="228" width="115" height="41" rx="7" fill="black"/>
<rect y="285" width="115" height="41" rx="7" fill="black"/>
<rect x="131" y="285" width="78" height="41" rx="7" fill="black"/>
</svg>
