<svg width="179" height="134" viewBox="0 0 179 134" fill="none" xmlns="http://www.w3.org/2000/svg">
<rect width="179" height="134" rx="24" fill="black"/>
<path d="M71.8796 89.613C69.019 89.613 66.5057 89.0817 64.3399 88.0192C62.2149 86.9159 60.5598 85.3834 59.3747 83.4218C58.2305 81.4194 57.6583 79.0696 57.6583 76.3725V56.8796C57.6583 54.1416 58.2305 51.7918 59.3747 49.8303C60.5598 47.8687 62.2149 46.3567 64.3399 45.2942C66.5057 44.1908 69.019 43.6391 71.8796 43.6391C74.781 43.6391 77.2739 44.1908 79.358 45.2942C81.483 46.3567 83.1381 47.8687 84.3232 49.8303C85.5083 51.7918 86.1008 54.1416 86.1008 56.8796H78.3772C78.3772 54.7546 77.8051 53.1404 76.6609 52.037C75.5575 50.9336 73.9637 50.3819 71.8796 50.3819C69.7954 50.3819 68.1812 50.9336 67.037 52.037C65.8928 53.1404 65.3206 54.7341 65.3206 56.8183V76.3725C65.3206 78.4567 65.8928 80.0709 67.037 81.2151C68.1812 82.3185 69.7954 82.8701 71.8796 82.8701C73.9637 82.8701 75.5575 82.3185 76.6609 81.2151C77.8051 80.0709 78.3772 78.4567 78.3772 76.3725H86.1008C86.1008 79.0288 85.5083 81.3581 84.3232 83.3605C83.1381 85.363 81.483 86.9159 79.358 88.0192C77.2739 89.0817 74.781 89.613 71.8796 89.613ZM108.635 89.613C105.774 89.613 103.261 89.0817 101.095 88.0192C98.97 86.9159 97.315 85.3834 96.1299 83.4218C94.9856 81.4194 94.4135 79.0696 94.4135 76.3725V56.8796C94.4135 54.1416 94.9856 51.7918 96.1299 49.8303C97.315 47.8687 98.97 46.3567 101.095 45.2942C103.261 44.1908 105.774 43.6391 108.635 43.6391C111.536 43.6391 114.029 44.1908 116.113 45.2942C118.238 46.3567 119.893 47.8687 121.078 49.8303C122.263 51.7918 122.856 54.1416 122.856 56.8796H115.132C115.132 54.7546 114.56 53.1404 113.416 52.037C112.313 50.9336 110.719 50.3819 108.635 50.3819C106.551 50.3819 104.936 50.9336 103.792 52.037C102.648 53.1404 102.076 54.7341 102.076 56.8183V76.3725C102.076 78.4567 102.648 80.0709 103.792 81.2151C104.936 82.3185 106.551 82.8701 108.635 82.8701C110.719 82.8701 112.313 82.3185 113.416 81.2151C114.56 80.0709 115.132 78.4567 115.132 76.3725H122.856C122.856 79.0288 122.263 81.3581 121.078 83.3605C119.893 85.363 118.238 86.9159 116.113 88.0192C114.029 89.0817 111.536 89.613 108.635 89.613Z" fill="white"/>
</svg>
