<svg width="390" height="195" viewBox="0 0 390 195" fill="none" xmlns="http://www.w3.org/2000/svg">
<rect width="195" height="195" fill="black"/>
<rect x="197" y="2" width="191" height="191" fill="white" stroke="black" stroke-width="4"/>
<path d="M59.688 124V115.288L76.104 98.8C78.408 96.448 80.112 94.336 81.216 92.464C82.32 90.544 82.872 88.576 82.872 86.56C82.872 84.112 82.2 82.216 80.856 80.872C79.512 79.48 77.688 78.784 75.384 78.784C72.84 78.784 70.848 79.528 69.408 81.016C67.968 82.456 67.248 84.472 67.248 87.064H58.248C58.296 83.704 59.016 80.824 60.408 78.424C61.848 75.976 63.864 74.08 66.456 72.736C69.048 71.392 72.072 70.72 75.528 70.72C78.84 70.72 81.72 71.344 84.168 72.592C86.616 73.84 88.512 75.592 89.856 77.848C91.2 80.104 91.872 82.792 91.872 85.912C91.872 89.128 91.032 92.272 89.352 95.344C87.72 98.368 85.08 101.632 81.432 105.136L70.488 115.864H92.52V124H59.688ZM103.22 124V116.08H116.9V79.432L103.148 89.656V80.152L115.244 71.44H125.9V116.08H136.916V124H103.22Z" fill="white"/>
<g style="mix-blend-mode:difference">
<path d="M199.6 89.776C197.584 89.776 195.952 89.224 194.704 88.12C193.504 86.968 192.904 85.504 192.904 83.728C192.904 81.904 193.504 80.44 194.704 79.336C195.952 78.232 197.584 77.68 199.6 77.68C201.616 77.68 203.224 78.232 204.424 79.336C205.672 80.44 206.296 81.904 206.296 83.728C206.296 85.504 205.672 86.968 204.424 88.12C203.224 89.224 201.616 89.776 199.6 89.776ZM199.6 118.72C197.584 118.72 195.952 118.168 194.704 117.064C193.504 115.96 192.904 114.496 192.904 112.672C192.904 110.848 193.504 109.384 194.704 108.28C195.952 107.176 197.584 106.624 199.6 106.624C201.616 106.624 203.224 107.176 204.424 108.28C205.672 109.384 206.296 110.848 206.296 112.672C206.296 114.496 205.672 115.96 204.424 117.064C203.224 118.168 201.616 118.72 199.6 118.72Z" fill="white"/>
</g>
<path d="M277.462 124V116.08H291.142V79.432L277.39 89.656V80.152L289.486 71.44H300.142V116.08H311.158V124H277.462Z" fill="black"/>
</svg>
