<svg width="338" height="165" viewBox="0 0 338 165" fill="none" xmlns="http://www.w3.org/2000/svg">
<rect x="1.94872" y="1.94872" width="334.103" height="161.103" fill="white" stroke="black" stroke-width="3.89744"/>
<path d="M166.937 140.455V136.855H173.155V120.196L166.905 124.844V120.524L172.403 116.564H177.246V136.855H182.254V140.455H166.937Z" fill="black"/>
<rect x="52" y="34" width="243" height="68" rx="11" fill="black"/>
<path d="M153.942 80.7931V76.2869L162.433 67.7586C163.625 66.5421 164.506 65.4496 165.077 64.4814C165.648 63.4883 165.934 62.4703 165.934 61.4276C165.934 60.1614 165.586 59.1807 164.891 58.4855C164.196 57.7655 163.252 57.4055 162.061 57.4055C160.745 57.4055 159.714 57.7903 158.97 58.56C158.225 59.3048 157.852 60.3476 157.852 61.6883H153.197C153.222 59.9503 153.594 58.4607 154.314 57.2193C155.059 55.9531 156.102 54.9724 157.443 54.2772C158.783 53.5821 160.348 53.2345 162.135 53.2345C163.848 53.2345 165.338 53.5572 166.604 54.2027C167.87 54.8483 168.851 55.7545 169.546 56.9214C170.241 58.0883 170.589 59.4786 170.589 61.0924C170.589 62.7558 170.154 64.3821 169.286 65.971C168.441 67.5352 167.076 69.2234 165.189 71.0358L159.528 76.5848H170.924V80.7931H153.942ZM176.459 80.7931V76.6965H183.534V57.7407L176.421 63.029V58.1131L182.678 53.6069H188.19V76.6965H193.888V80.7931H176.459Z" fill="white"/>
<g style="mix-blend-mode:difference">
<path d="M179.769 101.894C179.769 100.411 180.175 99.21 180.987 98.2916C181.835 97.4086 182.912 96.9671 184.219 96.9671C185.561 96.9671 186.638 97.4086 187.451 98.2916C188.263 99.21 188.669 100.411 188.669 101.894C188.669 103.378 188.263 104.561 187.451 105.444C186.638 106.362 185.561 106.822 184.219 106.822C182.912 106.822 181.835 106.362 180.987 105.444C180.175 104.561 179.769 103.378 179.769 101.894ZM158.47 101.894C158.47 100.411 158.876 99.21 159.689 98.2916C160.501 97.4086 161.578 96.9671 162.921 96.9671C164.263 96.9671 165.34 97.4086 166.152 98.2916C166.965 99.21 167.371 100.411 167.371 101.894C167.371 103.378 166.965 104.561 166.152 105.444C165.34 106.362 164.263 106.822 162.921 106.822C161.578 106.822 160.501 106.362 159.689 105.444C158.876 104.561 158.47 103.378 158.47 101.894Z" fill="white"/>
</g>
</svg>
