<svg width="243" height="265" viewBox="0 0 243 265" fill="none" xmlns="http://www.w3.org/2000/svg">
<rect y="157" width="243" height="68" rx="11" fill="black"/>
<mask id="path-2-outside-1_17_62" maskUnits="userSpaceOnUse" x="95.8394" y="145.082" width="134.35" height="134.35" fill="black">
<rect fill="white" x="95.8394" y="145.082" width="134.35" height="134.35"/>
<path fill-rule="evenodd" clip-rule="evenodd" d="M200.804 214.913L138.034 187.034L165.913 249.804L180.337 235.38L195.445 250.488L202.496 243.438L187.387 228.33L200.804 214.913Z"/>
</mask>
<path fill-rule="evenodd" clip-rule="evenodd" d="M200.804 214.913L138.034 187.034L165.913 249.804L180.337 235.38L195.445 250.488L202.496 243.438L187.387 228.33L200.804 214.913Z" fill="white"/>
<path d="M138.034 187.033L141.281 179.722L122.286 171.285L130.722 190.281L138.034 187.033ZM200.804 214.913L206.461 220.57L214.7 212.331L204.051 207.601L200.804 214.913ZM165.913 249.804L158.602 253.051L163.331 263.699L171.57 255.461L165.913 249.804ZM180.337 235.38L185.994 229.723L180.337 224.066L174.68 229.723L180.337 235.38ZM195.445 250.488L189.788 256.145L195.445 261.802L201.102 256.145L195.445 250.488ZM202.496 243.438L208.153 249.095L213.809 243.438L208.153 237.781L202.496 243.438ZM187.387 228.329L181.731 222.673L176.074 228.329L181.731 233.986L187.387 228.329ZM134.786 194.345L197.557 222.224L204.051 207.601L141.281 179.722L134.786 194.345ZM173.224 246.557L145.345 183.786L130.722 190.281L158.602 253.051L173.224 246.557ZM174.68 229.723L160.256 244.147L171.57 255.461L185.994 241.037L174.68 229.723ZM201.102 244.831L185.994 229.723L174.68 241.037L189.788 256.145L201.102 244.831ZM196.839 237.781L189.788 244.831L201.102 256.145L208.153 249.095L196.839 237.781ZM181.731 233.986L196.839 249.095L208.153 237.781L193.044 222.673L181.731 233.986ZM195.147 209.256L181.731 222.673L193.044 233.986L206.461 220.57L195.147 209.256Z" fill="black" mask="url(#path-2-outside-1_17_62)"/>
<mask id="path-4-inside-2_17_62" fill="white">
<path fill-rule="evenodd" clip-rule="evenodd" d="M216 0H27V125H105.707L121.5 141L137.293 125H216V0Z"/>
</mask>
<path fill-rule="evenodd" clip-rule="evenodd" d="M216 0H27V125H105.707L121.5 141L137.293 125H216V0Z" fill="white"/>
<path d="M27 0V-8H19V0H27ZM216 0H224V-8H216V0ZM27 125H19V133H27V125ZM105.707 125L111.4 119.38L109.051 117H105.707V125ZM121.5 141L115.806 146.62L121.5 152.388L127.194 146.62L121.5 141ZM137.293 125V117H133.949L131.6 119.38L137.293 125ZM216 125V133H224V125H216ZM27 8H216V-8H27V8ZM35 125V0H19V125H35ZM105.707 117H27V133H105.707V117ZM127.194 135.38L111.4 119.38L100.013 130.62L115.806 146.62L127.194 135.38ZM131.6 119.38L115.806 135.38L127.194 146.62L142.987 130.62L131.6 119.38ZM216 117H137.293V133H216V117ZM208 0V125H224V0H208Z" fill="black" mask="url(#path-4-inside-2_17_62)"/>
<path d="M105.619 59.76C104.179 59.76 103.011 59.36 102.115 58.56C101.251 57.76 100.819 56.72 100.819 55.44C100.819 54.128 101.251 53.088 102.115 52.32C103.011 51.52 104.179 51.12 105.619 51.12C107.059 51.12 108.211 51.52 109.075 52.32C109.971 53.088 110.419 54.128 110.419 55.44C110.419 56.72 109.971 57.76 109.075 58.56C108.211 59.36 107.059 59.76 105.619 59.76ZM105.619 78.48C104.179 78.48 103.011 78.08 102.115 77.28C101.251 76.48 100.819 75.44 100.819 74.16C100.819 72.848 101.251 71.808 102.115 71.04C103.011 70.24 104.179 69.84 105.619 69.84C107.059 69.84 108.211 70.24 109.075 71.04C109.971 71.808 110.419 72.848 110.419 74.16C110.419 75.44 109.971 76.48 109.075 77.28C108.211 78.08 107.059 78.48 105.619 78.48ZM125.52 83.76V76.464C127.312 76.016 128.848 75.264 130.128 74.208C131.44 73.152 132.432 71.856 133.104 70.32C133.808 68.752 134.16 67.008 134.16 65.088V56.4C134.16 54.416 133.808 52.64 133.104 51.072C132.432 49.504 131.456 48.192 130.176 47.136C128.896 46.08 127.344 45.328 125.52 44.88V37.68C128.848 38.576 131.68 39.92 134.016 41.712C136.384 43.472 138.192 45.6 139.44 48.096C140.72 50.592 141.36 53.36 141.36 56.4V65.088C141.36 69.728 139.984 73.664 137.232 76.896C134.512 80.096 130.608 82.384 125.52 83.76Z" fill="black"/>
</svg>
