<svg width="207" height="207" viewBox="0 0 207 207" fill="none" xmlns="http://www.w3.org/2000/svg">
<rect width="183" height="183" fill="black"/>
<rect x="29" y="29" width="173" height="173" fill="white" stroke="black" stroke-width="10"/>
<path d="M74.8481 142L88.0961 89.44H99.6881L113.008 142H103.792L100.912 129.256H86.9441L84.0641 142H74.8481ZM88.6001 121.912H99.2561L96.0881 107.8C95.5601 105.448 95.1041 103.336 94.7201 101.464C94.3361 99.544 94.0721 98.152 93.9281 97.288C93.7841 98.152 93.5201 99.544 93.1361 101.464C92.8001 103.336 92.3441 105.424 91.7681 107.728L88.6001 121.912ZM132.708 142.72C128.628 142.72 125.412 141.64 123.06 139.48C120.708 137.32 119.532 134.416 119.532 130.768C119.532 126.88 120.828 123.88 123.42 121.768C126.012 119.656 129.684 118.6 134.436 118.6H144.3V115.216C144.3 113.296 143.676 111.808 142.428 110.752C141.18 109.648 139.476 109.096 137.316 109.096C135.348 109.096 133.716 109.528 132.42 110.392C131.124 111.256 130.356 112.432 130.116 113.92H121.332C121.764 110.176 123.444 107.2 126.372 104.992C129.3 102.784 133.044 101.68 137.604 101.68C142.452 101.68 146.268 102.904 149.052 105.352C151.884 107.752 153.3 111.016 153.3 115.144V142H144.588V135.088H143.148L144.588 133.144C144.588 136.072 143.508 138.4 141.348 140.128C139.188 141.856 136.308 142.72 132.708 142.72ZM135.66 135.952C138.204 135.952 140.268 135.304 141.852 134.008C143.484 132.712 144.3 131.032 144.3 128.968V124.144H134.58C132.756 124.144 131.292 124.672 130.188 125.728C129.084 126.784 128.532 128.176 128.532 129.904C128.532 131.776 129.156 133.264 130.404 134.368C131.7 135.424 133.452 135.952 135.66 135.952Z" fill="black"/>
</svg>
