<svg width="417" height="93" viewBox="0 0 417 93" fill="none" xmlns="http://www.w3.org/2000/svg">
<path d="M2.84813 71L16.0961 18.44H27.6881L41.0081 71H31.7921L28.9121 58.256H14.9441L12.0641 71H2.84813ZM16.6001 50.912H27.2561L24.0881 36.8C23.5601 34.448 23.1041 32.336 22.7201 30.464C22.3361 28.544 22.0721 27.152 21.9281 26.288C21.7841 27.152 21.5201 28.544 21.1361 30.464C20.8001 32.336 20.3441 34.424 19.7681 36.728L16.6001 50.912ZM60.708 71.72C56.628 71.72 53.412 70.64 51.06 68.48C48.708 66.32 47.532 63.416 47.532 59.768C47.532 55.88 48.828 52.88 51.42 50.768C54.012 48.656 57.684 47.6 62.436 47.6H72.3V44.216C72.3 42.296 71.676 40.808 70.428 39.752C69.18 38.648 67.476 38.096 65.316 38.096C63.348 38.096 61.716 38.528 60.42 39.392C59.124 40.256 58.356 41.432 58.116 42.92H49.332C49.764 39.176 51.444 36.2 54.372 33.992C57.3 31.784 61.044 30.68 65.604 30.68C70.452 30.68 74.268 31.904 77.052 34.352C79.884 36.752 81.3 40.016 81.3 44.144V71H72.588V64.088H71.148L72.588 62.144C72.588 65.072 71.508 67.4 69.348 69.128C67.188 70.856 64.308 71.72 60.708 71.72ZM63.66 64.952C66.204 64.952 68.268 64.304 69.852 63.008C71.484 61.712 72.3 60.032 72.3 57.968V53.144H62.58C60.756 53.144 59.292 53.672 58.188 54.728C57.084 55.784 56.532 57.176 56.532 58.904C56.532 60.776 57.156 62.264 58.404 63.368C59.7 64.424 61.452 64.952 63.66 64.952Z" fill="black"/>
<path d="M287.328 85L307.752 3.97H325.623L346.158 85H331.95L327.51 65.353H305.976L301.536 85H287.328ZM308.529 54.031H324.957L320.073 32.275C319.259 28.649 318.556 25.393 317.964 22.507C317.372 19.547 316.965 17.401 316.743 16.069C316.521 17.401 316.114 19.547 315.522 22.507C315.004 25.393 314.301 28.612 313.413 32.164L308.529 54.031ZM376.529 86.11C370.239 86.11 365.281 84.445 361.655 81.115C358.029 77.785 356.216 73.308 356.216 67.684C356.216 61.69 358.214 57.065 362.21 53.809C366.206 50.553 371.867 48.925 379.193 48.925H394.4V43.708C394.4 40.748 393.438 38.454 391.514 36.826C389.59 35.124 386.963 34.273 383.633 34.273C380.599 34.273 378.083 34.939 376.085 36.271C374.087 37.603 372.903 39.416 372.533 41.71H358.991C359.657 35.938 362.247 31.35 366.761 27.946C371.275 24.542 377.047 22.84 384.077 22.84C391.551 22.84 397.434 24.727 401.726 28.501C406.092 32.201 408.275 37.233 408.275 43.597V85H394.844V74.344H392.624L394.844 71.347C394.844 75.861 393.179 79.45 389.849 82.114C386.519 84.778 382.079 86.11 376.529 86.11ZM381.08 75.676C385.002 75.676 388.184 74.677 390.626 72.679C393.142 70.681 394.4 68.091 394.4 64.909V57.472H379.415C376.603 57.472 374.346 58.286 372.644 59.914C370.942 61.542 370.091 63.688 370.091 66.352C370.091 69.238 371.053 71.532 372.977 73.234C374.975 74.862 377.676 75.676 381.08 75.676Z" fill="black"/>
<path d="M174.198 55.232V41.768H160.878V34.712H174.198V21.248H181.83V34.712H195.15V41.768H181.83V55.232H174.198Z" fill="black"/>
<circle cx="178" cy="38" r="34" stroke="black" stroke-width="8"/>
<path d="M203 63.5L229.5 90" stroke="black" stroke-width="8"/>
</svg>
